<svg width="74" height="81" viewBox="0 0 74 81" fill="none" xmlns="http://www.w3.org/2000/svg">
<path fill-rule="evenodd" clip-rule="evenodd" d="M18.5036 33.839C19.8463 14.2697 27.3341 0.183594 36.9951 0.183594C41.7007 0.183594 45.9005 3.53744 49.1323 9.24513C47.0218 9.6944 44.9336 10.2406 42.8748 10.8821C41.0232 7.99898 38.9717 6.33744 36.9951 6.33744C32.7641 6.33744 28.2021 13.8451 25.9602 25.2328C26.1298 25.1269 26.2969 25.0202 26.4634 24.9139C26.8483 24.6681 27.2296 24.4245 27.6307 24.199C36.6454 19.0667 46.013 15.6759 54.0253 14.6544C62.9651 13.5128 69.3943 15.4851 72.1515 20.1836C74.4653 24.1221 73.7471 29.3313 70.2312 35.0636C68.8573 33.5374 67.3054 32.0236 65.6723 30.5313C67.2679 27.4913 67.6957 24.8944 66.7433 23.2605C65.6848 21.4574 62.8183 20.4974 58.7684 20.4974C57.4463 20.5025 56.1259 20.5909 54.8153 20.7621C47.6054 21.6851 39.056 24.799 30.7501 29.5251C28.7358 30.7155 26.7663 31.9779 24.8454 33.3097C24.6768 35.2205 24.555 37.1682 24.5301 39.2113C22.2725 37.4544 20.2366 35.6544 18.5036 33.839ZM1.84185 20.1836C4.14627 16.2544 9.04862 14.2574 15.8214 14.3774C15.1625 16.3251 14.6004 18.3928 14.1133 20.5682C10.6848 20.7374 8.19617 21.6513 7.25942 23.2605C5.87927 25.6051 7.28127 29.8697 11.0158 34.6882C15.4185 40.3774 22.4317 46.1097 30.7501 50.8421C32.7741 51.9993 34.8496 53.067 36.9701 54.0421C38.775 53.199 40.5923 52.2974 42.3971 51.3036C41.9349 54.3067 41.326 56.9128 40.6422 59.1497C37.5072 60.6513 34.3722 61.9374 31.3121 62.9713L29.2513 63.599C27.153 64.2451 25.3232 64.7282 23.662 65.0759C23.6552 65.0777 23.6485 65.0795 23.642 65.0813C23.604 65.0915 23.5708 65.1005 23.5308 65.1005L22.847 65.2451C21.8728 65.4359 20.9204 65.5898 19.9681 65.7128C18.3194 65.9282 16.7362 66.0359 15.2593 66.0359C8.77071 66.0359 4.08694 64.0174 1.84185 60.1836C-0.475052 56.239 0.243127 51.039 3.74659 45.3159C5.20339 46.888 6.72969 48.3961 8.32107 49.8359C6.72234 52.8759 6.29456 55.4728 7.25942 57.1067C8.62395 59.4513 13.0735 60.3867 19.1624 59.6082C22.3474 59.199 25.8103 58.3221 29.3856 57.1067C29.1147 56.9576 28.842 56.8158 28.5702 56.6745C28.2529 56.5095 27.9371 56.3453 27.6276 56.1713C18.6129 51.0359 10.9534 44.7374 6.051 38.4174C5.51393 37.7313 5.08615 37.1067 4.69583 36.519C0.377394 30.2082 -0.668648 24.4605 1.84185 20.1836ZM44.0582 30.0021C46.728 28.959 49.3384 28.1282 51.8021 27.5621C58.4374 31.9744 64.0611 36.9497 67.9392 41.9497C73.4161 49.0051 74.9056 55.4851 72.1484 60.1836C69.9033 64.0174 65.2195 66.0359 58.7309 66.0359C58.6451 66.0359 58.5506 66.0274 58.4562 66.019C58.3617 66.0105 58.2673 66.0021 58.1814 66.0021C58.8538 63.9768 59.4197 61.9187 59.8769 59.8359C63.3304 59.6667 65.7816 58.7282 66.7433 57.1067C68.1079 54.7621 66.709 50.4974 62.9869 45.6759C61.0385 43.1774 58.5249 40.6636 55.6678 38.2236C55.6731 38.5083 55.6855 38.7884 55.6977 39.0678C55.714 39.4378 55.7302 39.8067 55.7302 40.1836C55.7302 61.6851 48.5703 78.1774 38.7999 80.0021C38.2129 80.1221 37.6196 80.1836 36.9951 80.1836C32.2895 80.1836 28.0897 76.8298 24.8579 71.1221C26.8969 70.7005 28.9921 70.1344 31.1154 69.4759C32.9671 72.3836 35.0186 74.0298 36.9951 74.0298C37.348 74.0298 37.7383 73.9713 38.1192 73.8482C43.6929 72.1774 49.4852 58.3313 49.4852 40.1836C49.4852 37.7682 49.3384 35.4851 49.1448 33.2482C47.5086 32.1436 45.8256 31.0359 44.0582 30.0021Z" fill="#D0D0D6"/>
</svg>
