<svg width="19" height="21" viewBox="0 0 19 21" fill="none" xmlns="http://www.w3.org/2000/svg">
<path fill-rule="evenodd" clip-rule="evenodd" d="M4.67956 9.05383C5.02856 4.02562 6.97481 0.40625 9.48595 0.40625C10.7091 0.40625 11.8007 1.268 12.6407 2.73457C12.0921 2.85 11.5494 2.99036 11.0142 3.15517C10.5329 2.41437 9.9997 1.98745 9.48595 1.98745C8.38621 1.98745 7.20044 3.91651 6.6177 6.84253C6.6618 6.81532 6.70524 6.78789 6.7485 6.76058C6.84855 6.69741 6.94766 6.63484 7.05192 6.57688C9.39505 5.25816 11.8299 4.38692 13.9125 4.12444C16.2362 3.83113 17.9073 4.3379 18.6239 5.54515C19.2253 6.55712 19.0387 7.89561 18.1248 9.36849C17.7677 8.97636 17.3643 8.58738 16.9398 8.20394C17.3546 7.42283 17.4658 6.75556 17.2182 6.33575C16.9431 5.87246 16.198 5.62579 15.1453 5.62579C14.8017 5.6271 14.4585 5.64981 14.1178 5.69378C12.2438 5.93096 10.0216 6.73105 7.86272 7.94541C7.33917 8.25128 6.82724 8.57564 6.32795 8.91785C6.28413 9.40881 6.25248 9.90926 6.24598 10.4342C5.65918 9.98279 5.13001 9.52029 4.67956 9.05383ZM0.34878 5.54515C0.947752 4.53555 2.22199 4.02245 3.98238 4.05329C3.81113 4.55374 3.66504 5.08502 3.53843 5.64398C2.64728 5.68746 2.00042 5.92227 1.75693 6.33575C1.3982 6.93819 1.76261 8.03396 2.73331 9.27204C3.87769 10.7339 5.70057 12.2067 7.86272 13.4227C8.38882 13.72 8.92827 13.9944 9.47946 14.2449C9.94857 14.0283 10.4209 13.7966 10.89 13.5413C10.7699 14.3129 10.6117 14.9825 10.4339 15.5573C9.61906 15.9431 8.80419 16.2736 8.00881 16.5392L7.47314 16.7005C6.92774 16.8665 6.45213 16.9907 6.02035 17.08C6.01858 17.0805 6.01685 17.0809 6.01516 17.0814C6.00528 17.084 5.99666 17.0863 5.98626 17.0863L5.80852 17.1235C5.5553 17.1725 5.30775 17.212 5.06021 17.2437C4.63168 17.299 4.22019 17.3267 3.83629 17.3267C2.14976 17.3267 0.932332 16.808 0.34878 15.823C-0.253439 14.8094 -0.0667675 13.4733 0.843866 12.0028C1.22252 12.4067 1.61924 12.7942 2.03288 13.1642C1.61734 13.9453 1.50614 14.6125 1.75693 15.0324C2.11161 15.6348 3.26816 15.8751 4.85081 15.6751C5.67866 15.57 6.57874 15.3446 7.50804 15.0324C7.43765 14.9941 7.36675 14.9576 7.29612 14.9213C7.21365 14.8789 7.13155 14.8367 7.0511 14.792C4.70797 13.4725 2.71708 11.8541 1.44284 10.2302C1.30324 10.0539 1.19205 9.89345 1.0906 9.74245C-0.0318682 8.12093 -0.303759 6.64408 0.34878 5.54515ZM11.3218 8.06796C12.0158 7.79994 12.6943 7.58648 13.3346 7.44101C15.0593 8.57473 16.521 9.85313 17.5291 11.1379C18.9526 12.9507 19.3398 14.6157 18.6231 15.823C18.0396 16.808 16.8221 17.3267 15.1356 17.3267C15.1133 17.3267 15.0887 17.3245 15.0642 17.3223C15.0396 17.3202 15.0151 17.318 14.9928 17.318C15.1675 16.7976 15.3146 16.2688 15.4335 15.7336C16.3311 15.6901 16.9682 15.449 17.2182 15.0324C17.5729 14.4299 17.2093 13.3341 16.2418 12.0953C15.7354 11.4533 15.082 10.8074 14.3394 10.1804C14.3408 10.2536 14.344 10.3256 14.3472 10.3974C14.3514 10.4924 14.3556 10.5872 14.3556 10.6841C14.3556 16.2088 12.4946 20.4464 9.95506 20.9152C9.80248 20.946 9.64827 20.9619 9.48595 20.9619C8.26285 20.9619 7.17122 20.1001 6.3312 18.6335C6.86119 18.5252 7.40578 18.3798 7.95768 18.2106C8.43897 18.9577 8.9722 19.3807 9.48595 19.3807C9.57766 19.3807 9.67912 19.3656 9.77813 19.334C11.2269 18.9047 12.7324 15.347 12.7324 10.6841C12.7324 10.0634 12.6943 9.47681 12.6439 8.90204C12.2187 8.61821 11.7812 8.3336 11.3218 8.06796Z" fill="url(#paint0_linear_61_9781)"/>
<defs>
<linearGradient id="paint0_linear_61_9781" x1="9.48722" y1="0.40625" x2="9.48722" y2="20.9619" gradientUnits="userSpaceOnUse">
<stop stop-color="#0D9488" stop-opacity="0.5"/>
<stop offset="0.256667" stop-color="#0D9488" stop-opacity="0.7"/>
<stop offset="1" stop-color="#0D9488"/>
</linearGradient>
</defs>
</svg>
