<svg width="14" height="15" viewBox="0 0 14 15" fill="none" xmlns="http://www.w3.org/2000/svg">
<path d="M2.99997 10.4392C2.48217 10.3353 2.00095 10.0966 1.60497 9.74716C1.12946 9.33158 0.787871 8.78432 0.623388 8.1746C0.458905 7.56488 0.47892 6.92008 0.680902 6.32173C0.882884 5.72338 1.25776 5.19837 1.75813 4.81308C2.25849 4.42779 2.86187 4.19953 3.49197 4.15716C3.53539 4.15798 3.57816 4.14648 3.61532 4.12401C3.65249 4.10153 3.68253 4.069 3.70197 4.03016C3.99072 3.19407 4.55731 2.4822 5.3073 2.01322C6.05729 1.54424 6.94537 1.34648 7.82349 1.45291C8.70161 1.55935 9.51673 1.96354 10.133 2.59811C10.7492 3.23268 11.1293 4.05929 11.21 4.94016C11.2172 4.98634 11.2373 5.02955 11.2679 5.06491C11.2984 5.10026 11.3383 5.12633 11.383 5.14016C11.9968 5.28442 12.5418 5.63675 12.9254 6.13729C13.3089 6.63784 13.5074 7.25573 13.487 7.88599C13.4666 8.51626 13.2287 9.12004 12.8136 9.59476C12.3985 10.0695 11.8319 10.3859 11.21 10.4902" stroke="black" stroke-width="0.9" stroke-linecap="round" stroke-linejoin="round"/>
<path d="M4.52794 12.0014C4.22994 11.9494 4.22994 11.5214 4.52794 11.4694C5.05557 11.3771 5.54381 11.1299 5.93058 10.7594C6.31735 10.3888 6.58516 9.91158 6.69994 9.38839L6.71994 9.30539C6.78494 9.01039 7.20394 9.00839 7.27094 9.30239L7.29294 9.39839C7.4116 9.91988 7.68191 10.3946 8.06984 10.7628C8.45777 11.131 8.94596 11.3761 9.47294 11.4674C9.77194 11.5194 9.77194 11.9494 9.47294 12.0014C8.94596 12.0927 8.45777 12.3378 8.06984 12.706C7.68191 13.0742 7.4116 13.5489 7.29294 14.0704L7.27094 14.1664C7.20394 14.4604 6.78494 14.4584 6.72094 14.1634L6.70194 14.0814C6.58709 13.5581 6.31913 13.0807 5.93217 12.7102C5.54521 12.3396 5.05675 12.0925 4.52894 12.0004L4.52794 12.0014Z" stroke="black" stroke-width="0.9" stroke-linecap="round" stroke-linejoin="round"/>
</svg>
