<svg width="28" height="29" viewBox="0 0 28 29" fill="none" xmlns="http://www.w3.org/2000/svg">
<path d="M23.333 14.5049C23.333 14.9479 23.0038 15.314 22.5767 15.3719L22.458 15.3799L4.95801 15.3799C4.47476 15.3799 4.08301 14.9881 4.08301 14.5049C4.08301 14.0619 4.41219 13.6958 4.83928 13.6379L4.95801 13.6299L22.458 13.6299C22.9413 13.6299 23.333 14.0216 23.333 14.5049Z" fill="#212121"/>
<path d="M12.6335 20.9127C12.9759 21.2537 12.9771 21.8077 12.6362 22.1501C12.3262 22.4615 11.8401 22.4907 11.497 22.2373L11.3987 22.1528L4.34039 15.1248C4.02815 14.8139 3.99975 14.3261 4.25519 13.983L4.34034 13.8848L11.3987 6.85559C11.7411 6.51459 12.2951 6.51573 12.6361 6.85815C12.9461 7.16944 12.9733 7.6556 12.7185 7.99762L12.6335 8.09558L6.19818 14.5051L12.6335 20.9127Z" fill="#212121"/>
</svg>
