<svg width="19" height="19" viewBox="0 0 19 19" fill="none" xmlns="http://www.w3.org/2000/svg">
<path d="M9.31646 12.1785V1.36719M9.31646 1.36719L11.8114 4.27793M9.31646 1.36719L6.82153 4.27793" stroke="#F7FAFC" stroke-width="0.831641" stroke-linecap="round" stroke-linejoin="round"/>
<path d="M5.98984 18.0001H12.643C14.9948 18.0001 16.1716 18.0001 16.9018 17.2699C17.6328 16.5381 17.6328 15.363 17.6328 13.0103V12.1786C17.6328 9.82673 17.6328 8.65079 16.9018 7.91978C16.2631 7.28108 15.2834 7.20041 13.4746 7.19043M5.1582 7.19043C3.34938 7.20041 2.36971 7.28108 1.73101 7.91978C1 8.65079 1 9.82673 1 12.1786V13.0103C1 15.363 1 16.5389 1.73101 17.2699C1.9805 17.5194 2.28156 17.6832 2.66328 17.7914" stroke="#F7FAFC" stroke-width="0.831641" stroke-linecap="round"/>
</svg>
