<svg width="84" height="106" viewBox="0 0 84 106" fill="none" xmlns="http://www.w3.org/2000/svg">
<path d="M55.8333 44.9503C51.4307 44.9503 47.2085 43.2013 44.0954 40.0882C40.9823 36.9751 39.2333 32.7529 39.2333 28.3503V6.21693H17.1C14.1649 6.21693 11.3501 7.38288 9.27468 9.45828C7.19928 11.5337 6.03333 14.3485 6.03333 17.2836V89.2169C6.03333 92.152 7.19928 94.9668 9.27468 97.0422C11.3501 99.1176 14.1649 100.284 17.1 100.284H66.9C69.8351 100.284 72.6499 99.1176 74.7253 97.0422C76.8007 94.9668 77.9667 92.152 77.9667 89.2169V44.9503H55.8333ZM44.7667 28.3503C44.7667 31.2853 45.9326 34.1002 48.008 36.1756C50.0834 38.251 52.8983 39.4169 55.8333 39.4169H75.698L44.7667 8.48559V28.3503ZM17.1 0.683594H44.7667L83.5 39.4169V89.2169C83.5 93.6195 81.7511 97.8418 78.638 100.955C75.5249 104.068 71.3026 105.817 66.9 105.817H17.1C12.6974 105.817 8.47513 104.068 5.36203 100.955C2.24892 97.8418 0.5 93.6195 0.5 89.2169V17.2836C0.5 12.881 2.24892 8.65873 5.36203 5.54562C8.47513 2.43252 12.6974 0.683594 17.1 0.683594Z" fill="#3C3C43"/>
</svg>
