<svg width="20" height="20" viewBox="0 0 20 20" fill="none" xmlns="http://www.w3.org/2000/svg">
<path d="M2.28417 5.99827H2.55785C3.61152 5.99827 4.47362 6.86036 4.47362 7.91403V17.4929C4.47362 18.5465 3.61152 19.4086 2.55785 19.4086H2.28417C1.2305 19.4086 0.368408 18.5465 0.368408 17.4929V7.91403C0.368408 6.86036 1.2305 5.99827 2.28417 5.99827V5.99827ZM9.94723 0.250977C11.0009 0.250977 11.863 1.11307 11.863 2.16674V17.4929C11.863 18.5465 11.0009 19.4086 9.94723 19.4086C8.89356 19.4086 8.03146 18.5465 8.03146 17.4929V2.16674C8.03146 1.11307 8.89356 0.250977 9.94723 0.250977ZM17.6103 11.1982C18.664 11.1982 19.526 12.0603 19.526 13.114V17.4929C19.526 18.5465 18.664 19.4086 17.6103 19.4086C16.5566 19.4086 15.6945 18.5465 15.6945 17.4929V13.114C15.6945 12.0603 16.5566 11.1982 17.6103 11.1982V11.1982Z" fill="#0D9488"/>
</svg>
