<svg width="130" height="131" viewBox="0 0 130 131" fill="none" xmlns="http://www.w3.org/2000/svg">
<path d="M97.4997 54.8499H70.4163M119.166 64.5891C119.166 50.3324 119.166 43.1987 114.996 38.5674C114.613 38.1401 114.208 37.7332 113.782 37.3487C109.151 33.1833 102.017 33.1833 87.7605 33.1833H85.7347C79.4893 33.1833 76.3638 33.1833 73.4497 32.3545C71.8505 31.8974 70.3092 31.2576 68.8563 30.4479C66.213 28.9799 64.003 26.7645 59.583 22.3499L56.6038 19.3708C55.1197 17.8866 54.383 17.1499 53.603 16.4999C50.2483 13.7192 46.1331 12.0146 41.7947 11.6087C40.7872 11.5166 39.7363 11.5166 37.6455 11.5166C32.8626 11.5166 30.4738 11.5166 28.4805 11.8958C24.2005 12.7041 20.2634 14.7836 17.183 17.863C14.1026 20.9425 12.0218 24.8789 11.2122 29.1587C10.833 31.1574 10.833 33.5516 10.833 38.3291M119.118 87.3499C118.923 100.783 117.926 108.394 112.818 113.502C106.475 119.85 96.2593 119.85 75.833 119.85H54.1663C33.7401 119.85 23.5243 119.85 17.1813 113.502C10.8384 107.153 10.833 96.9428 10.833 76.5166V60.2666" stroke="#3C3C43" stroke-width="8.125" stroke-linecap="round"/>
</svg>
