<svg width="17" height="14" viewBox="0 0 17 14" fill="none" xmlns="http://www.w3.org/2000/svg">
<path d="M13.6639 13.1589V10.6569H11.162V9.82295H13.6639V7.32102H14.4979V9.82295H16.9998V10.6569H14.4979V13.1589H13.6639ZM1.34687 13.6718C0.963245 13.6718 0.64272 13.5433 0.385299 13.2865C0.127878 13.0296 -0.000554187 12.7091 1.79736e-06 12.3249V1.675C1.79736e-06 1.29137 0.128434 0.971121 0.385299 0.714256C0.642164 0.457391 0.962689 0.328681 1.34687 0.328125H11.9968C12.3804 0.328125 12.7006 0.456835 12.9575 0.714256C13.2144 0.971677 13.3431 1.2922 13.3436 1.67583V5.33199H12.5097V3.15114H0.833979V12.3249C0.833979 12.4744 0.882071 12.5973 0.978257 12.6935C1.07444 12.7897 1.19731 12.8378 1.34687 12.8378H11.6757V13.6718H1.34687ZM0.833979 2.31716H12.5097V1.675C12.5097 1.52544 12.4613 1.40257 12.3645 1.30638C12.2689 1.21019 12.146 1.1621 11.9959 1.1621H1.34687C1.19676 1.1621 1.07389 1.21019 0.978257 1.30638C0.882071 1.40257 0.833979 1.52572 0.833979 1.67583V2.31716Z" fill="#090909"/>
</svg>
