<svg width="20" height="21" viewBox="0 0 20 21" fill="none" xmlns="http://www.w3.org/2000/svg">
<path d="M1 5.42969C1 3.66169 1 2.77769 1.55 2.22969C2.097 1.67969 2.981 1.67969 4.75 1.67969C6.519 1.67969 7.402 1.67969 7.95 2.22969C8.5 2.77769 8.5 3.66169 8.5 5.42969C8.5 7.19769 8.5 8.08169 7.95 8.62969C7.402 9.17969 6.518 9.17969 4.75 9.17969C2.982 9.17969 2.098 9.17969 1.55 8.62969C1 8.08269 1 7.19869 1 5.42969ZM1 15.9367C1 14.1687 1 13.2847 1.55 12.7367C2.098 12.1867 2.982 12.1867 4.75 12.1867C6.518 12.1867 7.402 12.1867 7.95 12.7367C8.5 13.2847 8.5 14.1687 8.5 15.9367C8.5 17.7047 8.5 18.5887 7.95 19.1367C7.402 19.6867 6.518 19.6867 4.75 19.6867C2.982 19.6867 2.098 19.6867 1.55 19.1367C1 18.5897 1 17.7047 1 15.9367ZM11.5 5.42969C11.5 3.66169 11.5 2.77769 12.05 2.22969C12.598 1.67969 13.482 1.67969 15.25 1.67969C17.018 1.67969 17.902 1.67969 18.45 2.22969C19 2.77769 19 3.66169 19 5.42969C19 7.19769 19 8.08169 18.45 8.62969C17.902 9.17969 17.018 9.17969 15.25 9.17969C13.482 9.17969 12.598 9.17969 12.05 8.62969C11.5 8.08169 11.5 7.19769 11.5 5.42969ZM11.5 15.9367C11.5 14.1687 11.5 13.2847 12.05 12.7367C12.598 12.1867 13.482 12.1867 15.25 12.1867C17.018 12.1867 17.902 12.1867 18.45 12.7367C19 13.2847 19 14.1687 19 15.9367C19 17.7047 19 18.5887 18.45 19.1367C17.902 19.6867 17.018 19.6867 15.25 19.6867C13.482 19.6867 12.598 19.6867 12.05 19.1367C11.5 18.5887 11.5 17.7047 11.5 15.9367Z" fill="#D9D9D9" fill-opacity="0.51" stroke="#3C3C43" stroke-width="1.5" stroke-linecap="round" stroke-linejoin="round"/>
</svg>
