<svg width="19" height="20" viewBox="0 0 19 20" fill="none" xmlns="http://www.w3.org/2000/svg">
<path d="M17.0006 7.90617C17.0006 7.77356 16.948 7.64638 16.8542 7.55261C16.7604 7.45885 16.6332 7.40617 16.5006 7.40617C16.368 7.40617 16.2408 7.45885 16.1471 7.55261C16.0533 7.64638 16.0006 7.77356 16.0006 7.90617H17.0006ZM3.00063 7.90617C3.00063 7.77356 2.94795 7.64638 2.85418 7.55261C2.76042 7.45885 2.63324 7.40617 2.50063 7.40617C2.36802 7.40617 2.24085 7.45885 2.14708 7.55261C2.05331 7.64638 2.00063 7.77356 2.00063 7.90617H3.00063ZM18.1466 10.2602C18.2405 10.3541 18.3679 10.4068 18.5006 10.4068C18.6334 10.4068 18.7607 10.3541 18.8546 10.2602C18.9485 10.1663 19.0013 10.0389 19.0013 9.90617C19.0013 9.77339 18.9485 9.64605 18.8546 9.55217L18.1466 10.2602ZM9.50063 0.906167L9.85463 0.552167C9.80819 0.505604 9.75301 0.468661 9.69226 0.443455C9.63152 0.418248 9.5664 0.405273 9.50063 0.405273C9.43486 0.405273 9.36974 0.418248 9.309 0.443455C9.24825 0.468661 9.19308 0.505604 9.14663 0.552167L9.50063 0.906167ZM0.146631 9.55217C0.0527448 9.64605 0 9.77339 0 9.90617C0 10.0389 0.0527448 10.1663 0.146631 10.2602C0.240518 10.3541 0.367856 10.4068 0.500632 10.4068C0.633407 10.4068 0.760745 10.3541 0.854632 10.2602L0.146631 9.55217ZM4.50063 19.4062H14.5006V18.4062H4.50063V19.4062ZM17.0006 16.9062V7.90617H16.0006V16.9062H17.0006ZM3.00063 16.9062V7.90617H2.00063V16.9062H3.00063ZM18.8546 9.55217L9.85463 0.552167L9.14663 1.26017L18.1466 10.2602L18.8546 9.55217ZM9.14663 0.552167L0.146631 9.55217L0.854632 10.2602L9.85463 1.26017L9.14663 0.552167ZM14.5006 19.4062C15.1637 19.4062 15.7996 19.1428 16.2684 18.6739C16.7372 18.2051 17.0006 17.5692 17.0006 16.9062H16.0006C16.0006 17.304 15.8426 17.6855 15.5613 17.9668C15.28 18.2481 14.8985 18.4062 14.5006 18.4062V19.4062ZM4.50063 18.4062C4.10281 18.4062 3.72128 18.2481 3.43997 17.9668C3.15867 17.6855 3.00063 17.304 3.00063 16.9062H2.00063C2.00063 17.5692 2.26402 18.2051 2.73286 18.6739C3.20171 19.1428 3.83759 19.4062 4.50063 19.4062V18.4062Z" fill="#090909"/>
</svg>
