<svg width="16" height="14" viewBox="0 0 16 14" fill="none" xmlns="http://www.w3.org/2000/svg">
<path d="M7.99992 2.90527V9.23861M7.99992 2.90527C7.99992 2.37484 7.7892 1.86613 7.41413 1.49106C7.03906 1.11599 6.53035 0.905273 5.99992 0.905273H1.33325V1.62861C1.33322 4.69266 0.997891 7.74751 0.333252 10.7386V10.9053H5.99992C6.53035 10.9053 7.03906 11.116 7.41413 11.4911C7.7892 11.8661 7.99992 12.3748 7.99992 12.9053M7.99992 2.90527C7.99992 2.37484 8.21063 1.86613 8.5857 1.49106C8.96078 1.11599 9.46949 0.905273 9.99992 0.905273H14.6666V1.62861C14.6666 4.69261 15.0019 7.74794 15.6666 10.7386V10.9053H9.99992C9.46949 10.9053 8.96078 11.116 8.5857 11.4911C8.21063 11.8661 7.99992 12.3748 7.99992 12.9053M7.99992 12.9053V13.2386" stroke="black"/>
</svg>
