<svg width="16" height="17" viewBox="0 0 16 17" fill="none" xmlns="http://www.w3.org/2000/svg">
<path d="M10.5 13.5928C10.4387 15.136 9.15258 16.4464 7.4297 16.4043C7.02887 16.3945 6.53344 16.2547 5.5426 15.9753C3.15801 15.3026 1.08796 14.1722 0.591296 11.6399C0.5 11.1744 0.5 10.6506 0.5 9.60299L0.5 8.20756C0.5 7.15995 0.5 6.63615 0.591296 6.17065C1.08796 3.63832 3.15801 2.50791 5.5426 1.8353C6.53345 1.55581 7.02887 1.41607 7.4297 1.40626C9.15257 1.36411 10.4387 2.6745 10.5 4.21778" stroke="#090909" stroke-linecap="round"/>
<path d="M15.4999 8.9056H6.33325M15.4999 8.9056C15.4999 8.32208 13.838 7.23187 13.4166 6.82227M15.4999 8.9056C15.4999 9.48912 13.838 10.5793 13.4166 10.9889" stroke="#090909" stroke-linecap="round" stroke-linejoin="round"/>
</svg>
