<svg width="12" height="15" viewBox="0 0 12 15" fill="none" xmlns="http://www.w3.org/2000/svg">
<path d="M8.75293 6.8418C8.75293 7.50484 8.48954 8.14072 8.0207 8.60956C7.55186 9.0784 6.91597 9.3418 6.25293 9.3418C5.58989 9.3418 4.954 9.0784 4.48516 8.60956C4.01632 8.14072 3.75293 7.50484 3.75293 6.8418V3.3418C3.75293 2.67876 4.01632 2.04287 4.48516 1.57403C4.954 1.10519 5.58989 0.841797 6.25293 0.841797C6.91597 0.841797 7.55186 1.10519 8.0207 1.57403C8.48954 2.04287 8.75293 2.67876 8.75293 3.3418V6.8418Z" stroke="black" stroke-opacity="0.6" stroke-linecap="round" stroke-linejoin="round"/>
<path d="M11.2529 7.3418C11.2543 7.93312 11.1388 8.51887 10.9131 9.06543C10.6874 9.61199 10.356 10.1086 9.93786 10.5267C9.51974 10.9448 9.02313 11.2763 8.47657 11.5019C7.93001 11.7276 7.34426 11.8431 6.75294 11.8418H5.75294C5.16162 11.8431 4.57587 11.7276 4.02931 11.5019C3.48275 11.2763 2.98615 10.9448 2.56802 10.5267C2.14989 10.1086 1.81848 9.61199 1.5928 9.06543C1.36712 8.51887 1.25162 7.93312 1.25294 7.3418M6.25294 11.8418V13.8418" stroke="black" stroke-opacity="0.6" stroke-linecap="round" stroke-linejoin="round"/>
</svg>
