<svg width="20" height="21" viewBox="0 0 20 21" fill="none" xmlns="http://www.w3.org/2000/svg">
<path d="M6.73642 13.4973C5.88494 14.0238 3.65241 15.0989 5.01217 16.4441C5.6764 17.1013 6.41619 17.5713 7.34627 17.5713H12.6536C13.5837 17.5713 14.3234 17.1013 14.9877 16.4441C16.3474 15.0989 14.1149 14.0238 13.2634 13.4973C11.2667 12.2626 8.73313 12.2626 6.73642 13.4973Z" stroke="#090909" stroke-linecap="round" stroke-linejoin="round"/>
<path d="M12.9166 7.15495C12.9166 8.76578 11.6107 10.0716 9.99992 10.0716C8.38909 10.0716 7.08325 8.76578 7.08325 7.15495C7.08325 5.54412 8.38909 4.23828 9.99992 4.23828C11.6107 4.23828 12.9166 5.54412 12.9166 7.15495Z" stroke="#090909"/>
</svg>
