<svg width="15" height="16" viewBox="0 0 15 16" fill="none" xmlns="http://www.w3.org/2000/svg">
<path fill-rule="evenodd" clip-rule="evenodd" d="M7.95 7.53252L10.8682 10.4508L10.2323 11.0875L7.05 7.90527V3.40527H7.95V7.53252ZM7.5 15.4053C3.35775 15.4053 0 12.0475 0 7.90527C0 3.76302 3.35775 0.405273 7.5 0.405273C11.6423 0.405273 15 3.76302 15 7.90527C15 12.0475 11.6423 15.4053 7.5 15.4053ZM7.5 14.5053C9.25043 14.5053 10.9292 13.8099 12.1669 12.5722C13.4046 11.3344 14.1 9.6557 14.1 7.90527C14.1 6.15484 13.4046 4.47611 12.1669 3.23837C10.9292 2.00063 9.25043 1.30527 7.5 1.30527C5.74957 1.30527 4.07084 2.00063 2.8331 3.23837C1.59535 4.47611 0.9 6.15484 0.9 7.90527C0.9 9.6557 1.59535 11.3344 2.8331 12.5722C4.07084 13.8099 5.74957 14.5053 7.5 14.5053Z" fill="black"/>
</svg>
