<svg width="24" height="23" viewBox="0 0 24 23" fill="none" xmlns="http://www.w3.org/2000/svg">
<path fill-rule="evenodd" clip-rule="evenodd" d="M23.0433 0.881098C22.9885 0.778431 22.9057 0.694431 22.803 0.639598C20.3693 -0.655402 5.8105 3.85726 2.0445 6.0296C1.06333 6.59543 0.625834 7.26043 0.746 8.00243C1.0925 10.1514 6.88267 11.7801 10.0245 12.5093L15.9243 6.6106C16.2662 6.26876 16.8203 6.26876 17.1622 6.6106C17.504 6.95243 17.504 7.5066 17.1622 7.84843L11.2052 13.8031C11.953 16.9776 13.5642 22.5951 15.6793 22.9358C15.7587 22.9486 15.838 22.9556 15.9162 22.9556C16.5625 22.9556 17.1458 22.5123 17.651 21.6373C19.8233 17.8748 24.3395 3.31826 23.0433 0.881098Z" fill="white"/>
</svg>
