<svg width="27" height="29" viewBox="0 0 27 29" fill="none" xmlns="http://www.w3.org/2000/svg">
<path d="M13.4282 18.2969C15.6123 18.2969 17.3828 16.5263 17.3828 14.3423C17.3828 12.1582 15.6123 10.3877 13.4282 10.3877C11.2442 10.3877 9.47363 12.1582 9.47363 14.3423C9.47363 16.5263 11.2442 18.2969 13.4282 18.2969Z" stroke="black" stroke-width="1.2"/>
<path d="M2.43576 12.5494C3.05926 12.9395 3.46 13.6066 3.46 14.3421C3.46 15.0777 3.05926 15.7447 2.43576 16.1348C2.01262 16.4024 1.73843 16.6147 1.54466 16.8678C1.33387 17.1425 1.17927 17.4561 1.08971 17.7906C1.00014 18.1252 0.977354 18.474 1.02265 18.8174C1.0912 19.3367 1.39834 19.8693 2.0113 20.9331C2.6269 21.9969 2.93404 22.5281 3.34927 22.8484C3.62403 23.0592 3.93762 23.2138 4.27214 23.3034C4.60666 23.3929 4.95555 23.4157 5.29888 23.3704C5.61524 23.3282 5.93557 23.1991 6.37848 22.9644C6.69557 22.7913 7.05139 22.7015 7.41264 22.7033C7.7739 22.7052 8.12879 22.7986 8.44409 22.975C9.08078 23.3441 9.4591 24.0229 9.48546 24.7585C9.50392 25.2594 9.55137 25.6021 9.67397 25.8961C9.80646 26.2162 10.0007 26.507 10.2457 26.752C10.4907 26.9969 10.7815 27.1912 11.1016 27.3237C11.5853 27.5241 12.1996 27.5241 13.4282 27.5241C14.6567 27.5241 15.271 27.5241 15.7548 27.3237C16.0749 27.1912 16.3657 26.9969 16.6107 26.752C16.8556 26.507 17.0499 26.2162 17.1824 25.8961C17.3037 25.6021 17.3525 25.2594 17.3709 24.7585C17.3973 24.0229 17.7756 23.3427 18.4123 22.975C18.7276 22.7986 19.0825 22.7052 19.4437 22.7033C19.805 22.7015 20.1608 22.7913 20.4779 22.9644C20.9208 23.1991 21.2424 23.3282 21.5588 23.3704C22.2518 23.4615 22.9525 23.2738 23.5071 22.8484C23.9223 22.5294 24.2295 21.9969 24.8438 20.9331C25.1179 20.4585 25.3302 20.0908 25.4883 19.7823M24.4206 16.1362C24.1122 15.9483 23.8565 15.6853 23.6774 15.3718C23.4983 15.0583 23.4016 14.7045 23.3964 14.3434C23.3964 13.6066 23.7971 12.9395 24.4206 12.548C24.8438 12.2818 25.1166 12.0695 25.3117 11.8164C25.5225 11.5417 25.6771 11.2281 25.7667 10.8936C25.8562 10.559 25.879 10.2102 25.8337 9.86683C25.7652 9.34746 25.458 8.81491 24.8451 7.75113C24.2295 6.68735 23.9223 6.15611 23.5071 5.83579C23.2323 5.625 22.9187 5.47041 22.5842 5.38084C22.2497 5.29127 21.9008 5.26849 21.5575 5.31379C21.2411 5.35597 20.9208 5.48515 20.4766 5.71979C20.1596 5.89266 19.8041 5.98237 19.4431 5.98053C19.0821 5.97868 18.7274 5.88535 18.4123 5.70925C18.102 5.52429 17.8438 5.26367 17.6616 4.95175C17.4795 4.63984 17.3795 4.28682 17.3709 3.92573C17.3525 3.42482 17.305 3.08208 17.1824 2.78813C17.0499 2.46804 16.8556 2.17721 16.6107 1.93225C16.3657 1.6873 16.0749 1.49302 15.7548 1.36052C15.271 1.16016 14.6567 1.16016 13.4282 1.16016C12.1996 1.16016 11.5853 1.16016 11.1016 1.36052C10.7815 1.49302 10.4907 1.6873 10.2457 1.93225C10.0007 2.17721 9.80646 2.46804 9.67397 2.78813C9.55269 3.08208 9.50392 3.42482 9.48546 3.92573C9.47688 4.28682 9.37685 4.63984 9.19473 4.95175C9.0126 5.26367 8.75434 5.52429 8.44409 5.70925C8.12879 5.88558 7.7739 5.97905 7.41264 5.98089C7.05139 5.98273 6.69557 5.8929 6.37848 5.71979C5.93557 5.48515 5.61393 5.35597 5.29756 5.31379C4.60461 5.22266 3.90383 5.41042 3.34927 5.83579C2.93535 6.15611 2.6269 6.68735 2.01262 7.75113C1.73843 8.22568 1.5262 8.59346 1.36802 8.90191" stroke="black" stroke-width="1.2" stroke-linecap="round"/>
</svg>
