<svg width="17" height="17" viewBox="0 0 17 17" fill="none" xmlns="http://www.w3.org/2000/svg">
<path d="M4.03011 5.7343C2.18515 6.15205 1.26267 6.36056 1.04293 7.06631C0.82393 7.77131 1.45242 8.50707 2.71014 9.97783L3.03563 10.3581C3.39262 10.7758 3.57187 10.9851 3.65211 11.2431C3.73236 11.5018 3.70536 11.7808 3.65136 12.3381L3.60186 12.8458C3.41212 14.8086 3.31687 15.7896 3.89136 16.2254C4.46584 16.6611 5.32982 16.2636 7.05628 15.4686L7.50402 15.2631C7.99451 15.0366 8.23976 14.9241 8.5 14.9241C8.76024 14.9241 9.00549 15.0366 9.49673 15.2631L9.94297 15.4686C11.6702 16.2636 12.5342 16.6611 13.1079 16.2261C13.6831 15.7896 13.5879 14.8086 13.3981 12.8458M14.2899 9.97783C15.5476 8.50782 16.1761 7.77206 15.9571 7.06631C15.7381 6.36056 14.8149 6.1513 12.9699 5.7343L12.4929 5.6263C11.9687 5.5078 11.7069 5.44855 11.4962 5.2888C11.2854 5.12905 11.1512 4.8868 10.8812 4.40229L10.6352 3.96129C9.68497 2.25728 9.21023 1.40527 8.5 1.40527C7.78977 1.40527 7.31503 2.25728 6.3648 3.96129" stroke="black" stroke-linecap="round"/>
</svg>
