<svg width="17" height="17" viewBox="0 0 17 17" fill="none" xmlns="http://www.w3.org/2000/svg">
<path d="M4.03011 5.32903C2.18515 5.74678 1.26267 5.95528 1.04293 6.66104C0.82393 7.36604 1.45242 8.1018 2.71014 9.57255L3.03563 9.95281C3.39262 10.3706 3.57187 10.5798 3.65211 10.8378C3.73236 11.0966 3.70536 11.3756 3.65136 11.9328L3.60186 12.4406C3.41212 14.4033 3.31687 15.3843 3.89136 15.8201C4.46584 16.2558 5.32982 15.8583 7.05628 15.0633L7.50402 14.8578C7.99451 14.6313 8.23976 14.5188 8.5 14.5188C8.76024 14.5188 9.00549 14.6313 9.49673 14.8578L9.94297 15.0633C11.6702 15.8583 12.5342 16.2558 13.1079 15.8208C13.6831 15.3843 13.5879 14.4033 13.3981 12.4406M14.2899 9.57255C15.5476 8.10255 16.1761 7.36679 15.9571 6.66104C15.7381 5.95528 14.8149 5.74603 12.9699 5.32903L12.4929 5.22103C11.9687 5.10253 11.7069 5.04328 11.4962 4.88352C11.2854 4.72377 11.1512 4.48152 10.8812 3.99702L10.6352 3.55602C9.68497 1.85201 9.21023 1 8.5 1C7.78977 1 7.31503 1.85201 6.3648 3.55602" fill="black"/>
<path d="M4.03011 5.32903C2.18515 5.74678 1.26267 5.95528 1.04293 6.66104C0.82393 7.36604 1.45242 8.1018 2.71014 9.57255L3.03563 9.95281C3.39262 10.3706 3.57187 10.5798 3.65211 10.8378C3.73236 11.0966 3.70536 11.3756 3.65136 11.9328L3.60186 12.4406C3.41212 14.4033 3.31687 15.3843 3.89136 15.8201C4.46584 16.2558 5.32982 15.8583 7.05628 15.0633L7.50402 14.8578C7.99451 14.6313 8.23976 14.5188 8.5 14.5188C8.76024 14.5188 9.00549 14.6313 9.49673 14.8578L9.94297 15.0633C11.6702 15.8583 12.5342 16.2558 13.1079 15.8208C13.6831 15.3843 13.5879 14.4033 13.3981 12.4406M14.2899 9.57255C15.5476 8.10255 16.1761 7.36679 15.9571 6.66104C15.7381 5.95528 14.8149 5.74603 12.9699 5.32903L12.4929 5.22103C11.9687 5.10253 11.7069 5.04328 11.4962 4.88352C11.2854 4.72377 11.1512 4.48152 10.8812 3.99702L10.6352 3.55602C9.68497 1.85201 9.21023 1 8.5 1C7.78977 1 7.31503 1.85201 6.3648 3.55602" stroke="black" stroke-linecap="round"/>
</svg>
