<svg width="24" height="25" viewBox="0 0 24 25" fill="none" xmlns="http://www.w3.org/2000/svg">
<path fill-rule="evenodd" clip-rule="evenodd" d="M12 3.18359C10.9389 3.18335 9.9004 3.49004 9.00969 4.0667C8.11897 4.64336 7.41408 5.46536 6.98 6.43359C6.91934 6.57086 6.85734 6.70754 6.794 6.84359L6.726 6.97559C6.69295 7.02991 6.64985 7.07743 6.599 7.11559C6.54324 7.1462 6.48214 7.16589 6.419 7.17359C6.383 7.18059 6.309 7.18359 6 7.18359C5.07174 7.18359 4.1815 7.55234 3.52513 8.20872C2.86875 8.8651 2.5 9.75534 2.5 10.6836C2.5 11.6119 2.86875 12.5021 3.52513 13.1585C4.1815 13.8148 5.07174 14.1836 6 14.1836H6.672L7.672 13.1836H6C5.33696 13.1836 4.70107 12.9202 4.23223 12.4514C3.76339 11.9825 3.5 11.3466 3.5 10.6836C3.5 10.0206 3.76339 9.38467 4.23223 8.91583C4.70107 8.44699 5.33696 8.18359 6 8.18359H6.054C6.28 8.18359 6.467 8.18359 6.616 8.15359C6.796 8.11759 6.974 8.06359 7.142 7.95359C7.31 7.84559 7.432 7.70559 7.54 7.55559C7.598 7.47559 7.65 7.37159 7.697 7.27259C7.74633 7.16659 7.81067 7.02526 7.89 6.84859L7.892 6.84359C8.24694 6.05089 8.82364 5.37781 9.55256 4.90554C10.2815 4.43327 11.1315 4.18198 12 4.18198C12.8685 4.18198 13.7185 4.43327 14.4474 4.90554C15.1764 5.37781 15.7531 6.05089 16.108 6.84359L16.11 6.84959C16.1893 7.02559 16.2537 7.16659 16.303 7.27259C16.35 7.37159 16.402 7.47459 16.46 7.55559C16.567 7.70559 16.69 7.84559 16.858 7.95459C17.026 8.06359 17.204 8.11759 17.384 8.15459C17.533 8.18459 17.72 8.18459 17.946 8.18359H18C18.663 8.18359 19.2989 8.44699 19.7678 8.91583C20.2366 9.38467 20.5 10.0206 20.5 10.6836C20.5 11.3466 20.2366 11.9825 19.7678 12.4514C19.2989 12.9202 18.663 13.1836 18 13.1836H16.328L17.328 14.1836H18C18.4596 14.1836 18.9148 14.0931 19.3394 13.9172C19.764 13.7413 20.1499 13.4835 20.4749 13.1585C20.7999 12.8335 21.0577 12.4476 21.2336 12.023C21.4095 11.5983 21.5 11.1432 21.5 10.6836C21.5 10.224 21.4095 9.76884 21.2336 9.3442C21.0577 8.91956 20.7999 8.53373 20.4749 8.20872C20.1499 7.88372 19.764 7.62591 19.3394 7.45002C18.9148 7.27412 18.4596 7.18359 18 7.18359C17.691 7.18359 17.617 7.18059 17.582 7.17359C17.5188 7.16558 17.4577 7.14555 17.402 7.11459C17.3508 7.07652 17.3073 7.029 17.274 6.97459L17.258 6.94759L17.206 6.84259C17.1427 6.70687 17.0807 6.57053 17.02 6.43359C16.5859 5.46536 15.881 4.64336 14.9903 4.0667C14.0996 3.49004 13.0611 3.18335 12 3.18359Z" fill="#0D9488"/>
<path d="M12 12.6836L11.646 12.3296L12 11.9766L12.354 12.3296L12 12.6836ZM12.5 21.6836C12.5 21.8162 12.4473 21.9433 12.3535 22.0371C12.2598 22.1309 12.1326 22.1836 12 22.1836C11.8674 22.1836 11.7402 22.1309 11.6464 22.0371C11.5527 21.9433 11.5 21.8162 11.5 21.6836H12.5ZM7.646 16.3296L11.646 12.3296L12.354 13.0376L8.354 17.0376L7.646 16.3296ZM12.354 12.3296L16.354 16.3296L15.646 17.0376L11.646 13.0376L12.354 12.3296ZM12.5 12.6836V21.6836H11.5V12.6836H12.5Z" fill="#0D9488"/>
</svg>
